<svg width="36" height="19" viewBox="0 0 36 19" fill="none" xmlns="http://www.w3.org/2000/svg">
<path d="M6.72 18.312C3.24 18.312 0.864 15.72 0.864 11.736C0.864 7.752 3.216 5.016 6.624 5.016C8.616 5.016 9.768 6.096 10.2 6.768H10.392V5.328H14.112V18H10.416V16.56H10.224C9.864 17.136 8.808 18.312 6.72 18.312ZM7.56 14.952C9.336 14.952 10.464 13.536 10.464 11.664C10.464 9.648 9.24 8.376 7.536 8.376C5.808 8.376 4.632 9.72 4.632 11.664C4.632 13.632 5.808 14.952 7.56 14.952ZM29.2018 18H25.0258L22.2418 12.744L20.5618 14.616V18H16.8418V-1.43051e-06H20.5618V9.648H20.7058L24.3058 5.328H28.8898L24.8098 9.888L29.2018 18ZM33.1239 18.312C31.9959 18.312 31.0839 17.496 31.0839 16.32C31.0839 15.192 31.9959 14.328 33.1239 14.328C34.3479 14.328 35.1639 15.192 35.1639 16.32C35.1639 17.496 34.3479 18.312 33.1239 18.312Z" fill="white"/>
</svg>
