<svg width="24" height="24" viewBox="0 0 24 24" fill="none" xmlns="http://www.w3.org/2000/svg">
<g clip-path="url(#clip0_14_208)">
<path fill-rule="evenodd" clip-rule="evenodd" d="M15.5772 6.74064H21.6828V4.9922H15.5772V6.74064ZM18.5868 10.2522C17.2248 10.2522 16.1904 11.096 16.0908 12.6551H20.9772C20.646 10.8047 19.824 10.2522 18.5868 10.2522ZM18.7776 17.4838C20.0352 17.4838 20.958 16.6894 21.1464 16.0201H23.7912C23.0352 18.4406 21.474 19.8 18.6708 19.8C15.0936 19.8 13.086 17.2558 13.086 13.8797C13.086 5.92911 24.558 5.64407 23.982 14.6221H16.0908C16.1676 16.4452 16.92 17.4838 18.7776 17.4838ZM6.876 17.134C8.3196 17.134 9.33 16.5787 9.33 15.0803C9.33 13.5261 8.4372 12.852 6.9384 12.852H3.3216V17.134H6.876ZM6.6852 10.5147C7.8864 10.5147 8.7156 9.95552 8.7156 8.65665C8.7156 7.28839 7.7508 6.86603 6.432 6.86603H3.3216V10.5147H6.6852ZM7.1088 4.20001C9.954 4.20001 11.9316 5.14045 11.9316 8.06661C11.9316 9.51545 11.3496 10.5952 9.8796 11.3227C11.7612 11.8816 12.6516 13.3493 12.6516 15.2777C12.6516 18.339 10.224 19.8 7.32 19.8H0V4.20001H7.1088Z" fill="white"/>
</g>
<defs>
<clipPath id="clip0_14_208">
<rect width="24" height="24" fill="white"/>
</clipPath>
</defs>
</svg>
