<svg width="60" height="60" viewBox="0 0 60 60" fill="none" xmlns="http://www.w3.org/2000/svg">
<g clip-path="url(#clip0_14_259)">
<path d="M0 30C0 24.5391 1.46133 19.4062 4.01602 14.8945L16.8867 37.3008C19.4531 41.8945 24.3633 45 30 45C31.6758 45 33.1758 44.7305 34.7812 44.2266L25.8398 59.7188C11.2383 57.6914 0 45.1523 0 30ZM42.7852 37.6875C44.2266 35.4375 45 32.707 45 30C45 25.5234 43.0313 21.5039 39.9258 18.75H57.8203C59.2266 22.2188 60 26.0273 60 30C60 46.5703 46.5703 59.8945 30 60L42.7852 37.6875ZM55.9922 15H30C22.6289 15 16.6758 20.168 15.293 27.0352L6.35039 11.5395C11.8359 4.51523 20.3906 0 30 0C41.1094 0 50.8008 6.03281 55.9922 15ZM19.6875 30C19.6875 24.3047 24.3047 19.6875 30 19.6875C35.6953 19.6875 40.3125 24.3047 40.3125 30C40.3125 35.6953 35.6953 40.3125 30 40.3125C24.3047 40.3125 19.6875 35.6953 19.6875 30Z" fill="white"/>
</g>
<defs>
<clipPath id="clip0_14_259">
<rect width="60" height="60" fill="white"/>
</clipPath>
</defs>
</svg>
