<svg width="16" height="16" viewBox="0 0 16 16" fill="none" xmlns="http://www.w3.org/2000/svg">
<path d="M8.74536 3.57762C8.74536 3.13787 8.39008 2.78259 7.95033 2.78259C7.51058 2.78259 7.1553 3.13787 7.1553 3.57762V9.93787C7.1553 10.3776 7.51058 10.7329 7.95033 10.7329C8.39008 10.7329 8.74536 10.3776 8.74536 9.93787V3.57762ZM7.95033 13.913C8.2139 13.913 8.46668 13.8083 8.65305 13.622C8.83942 13.4356 8.94412 13.1828 8.94412 12.9192C8.94412 12.6557 8.83942 12.4029 8.65305 12.2165C8.46668 12.0302 8.2139 11.9255 7.95033 11.9255C7.68676 11.9255 7.43399 12.0302 7.24762 12.2165C7.06125 12.4029 6.95654 12.6557 6.95654 12.9192C6.95654 13.1828 7.06125 13.4356 7.24762 13.622C7.43399 13.8083 7.68676 13.913 7.95033 13.913Z" fill="white"/>
<path fill-rule="evenodd" clip-rule="evenodd" d="M8 14.6087C11.6499 14.6087 14.6087 11.6499 14.6087 8C14.6087 4.35012 11.6499 1.3913 8 1.3913C4.35012 1.3913 1.3913 4.35012 1.3913 8C1.3913 11.6499 4.35012 14.6087 8 14.6087ZM8 16C12.4183 16 16 12.4183 16 8C16 3.58172 12.4183 0 8 0C3.58172 0 0 3.58172 0 8C0 12.4183 3.58172 16 8 16Z" fill="white"/>
</svg>
