<svg width="60" height="60" viewBox="0 0 60 60" fill="none" xmlns="http://www.w3.org/2000/svg">
<path fill-rule="evenodd" clip-rule="evenodd" d="M22.5 10C19.7386 10 17.5 12.2386 17.5 15C17.5 17.7614 19.7386 20 22.5 20H27.5V10H22.5ZM32.5 10V20H37.5C40.2615 20 42.5 17.7614 42.5 15C42.5 12.2386 40.2615 10 37.5 10H32.5ZM44.1146 22.5C46.1907 20.6676 47.5 17.9867 47.5 15C47.5 9.47719 43.023 5 37.5 5H22.5C16.9772 5 12.5 9.47716 12.5 15C12.5 17.9867 13.8094 20.6676 15.8854 22.5C13.8094 24.3323 12.5 27.0132 12.5 30C12.5 32.9868 13.8094 35.6677 15.8854 37.5C13.8094 39.3323 12.5 42.0132 12.5 45C12.5 50.523 16.9772 55 22.5 55C28.023 55 32.5 50.523 32.5 45V38.6622C33.9709 39.513 35.6785 40 37.5 40C43.023 40 47.5 35.523 47.5 30C47.5 27.0132 46.1907 24.3323 44.1146 22.5ZM27.5 25H22.5C19.7386 25 17.5 27.2385 17.5 30C17.5 32.7615 19.7386 35 22.5 35H27.5V25ZM27.5 40H22.5C19.7386 40 17.5 42.2385 17.5 45C17.5 47.7615 19.7386 50 22.5 50C25.2615 50 27.5 47.7615 27.5 45V40ZM37.5 25C40.2615 25 42.5 27.2385 42.5 30C42.5 32.7615 40.2615 35 37.5 35C34.7385 35 32.5 32.7615 32.5 30C32.5 27.2385 34.7385 25 37.5 25Z" fill="white"/>
</svg>
