<svg width="24" height="24" viewBox="0 0 24 24" fill="none" xmlns="http://www.w3.org/2000/svg">
<path fill-rule="evenodd" clip-rule="evenodd" d="M9 4C7.89543 4 7 4.89543 7 6C7 7.10456 7.89543 8 9 8H11V4H9ZM13 4V8H15C16.1046 8 17 7.10458 17 6C17 4.89542 16.1046 4 15 4H13ZM17.6459 8.99999C18.4763 8.26704 19 7.19468 19 6C19 3.79088 17.2092 2 15 2H9C6.79087 2 5 3.79087 5 6C5 7.19469 5.52375 8.26705 6.35417 8.99999C5.52375 9.73293 5 10.8053 5 12C5 13.1947 5.52375 14.2671 6.35416 15C5.52375 15.7329 5 16.8053 5 18C5 20.2092 6.79088 22 9 22C11.2092 22 13 20.2092 13 18V15.4649C13.5883 15.8052 14.2714 16 15 16C17.2092 16 19 14.2092 19 12C19 10.8053 18.4763 9.73293 17.6459 8.99999ZM11 10H9C7.89542 10 7 10.8954 7 12C7 13.1046 7.89542 14 9 14H11V10ZM11 16H9C7.89542 16 7 16.8954 7 18C7 19.1046 7.89542 20 9 20C10.1046 20 11 19.1046 11 18V16ZM15 10C16.1046 10 17 10.8954 17 12C17 13.1046 16.1046 14 15 14C13.8954 14 13 13.1046 13 12C13 10.8954 13.8954 10 15 10Z" fill="white"/>
</svg>
