<svg width="60" height="60" viewBox="0 0 60 60" fill="none" xmlns="http://www.w3.org/2000/svg">
<path d="M25.3465 18.5615H16.0547C11.3672 17.3322 0.762891 17.6521 0.762891 27.3259C0.762891 30.8521 2.5207 33.3294 4.86445 34.4744C1.92305 37.1697 0.528516 38.4412 0.528516 40.2412C0.528516 41.5302 1.05234 42.7185 2.625 43.383C0.952734 44.9544 0 46.0959 0 48.2404C0 52.0033 3.28711 54.1959 11.9098 54.1959C20.2008 54.1959 25.0102 51.0998 25.0102 45.6201C25.0102 38.7459 19.718 38.999 7.24102 38.2373L8.81484 35.7119C12.0105 36.6001 22.725 36.8837 22.725 27.756C22.725 25.5646 21.8191 24.04 20.9672 22.9431L25.3512 22.6103L25.3465 18.5615ZM17.9145 46.9091C17.9145 50.6662 5.62266 50.6709 5.62266 47.1939C5.62266 46.24 6.24023 45.4361 6.86133 44.6697C15.968 45.2908 17.9145 45.0646 17.9145 46.9091ZM11.9602 31.138C5.77266 31.138 6.04688 22.799 12.1008 22.799C17.9063 22.799 18.0562 31.138 11.9602 31.138ZM27.5813 42.9166V39.1548C30.716 38.7259 30.7734 38.9205 30.7734 37.8658V23.8607C30.7734 22.8646 30.5332 22.9959 27.5813 21.9552L28.1051 18.0974H37.9688V37.8681C37.9688 38.631 38.0156 38.7259 38.7316 38.822L41.1609 39.1548V42.9166H27.5813ZM33.7277 14.2865C31.0125 14.2865 29.4398 12.7126 29.4398 9.99624C29.4398 7.27983 31.0125 5.80444 33.7277 5.80444C36.491 5.80444 38.0637 7.28335 38.0637 9.99624C38.0637 12.7091 36.491 14.2865 33.7277 14.2865ZM60 41.0697C57.9504 42.0693 54.9492 42.9751 52.2328 42.9751C46.5633 42.9751 44.4199 40.69 44.4199 35.3041V22.8224C44.4199 22.1873 44.543 22.3466 40.7039 22.3466V18.1056C44.8969 17.6287 46.5633 15.5275 47.0871 10.3396H51.6141C51.6141 18.0541 51.457 17.583 51.9961 17.583H58.7109V22.3466H51.6141V33.7314C51.6141 34.5423 51.0375 39.756 58.7121 36.8767L60 41.0697Z" fill="white"/>
</svg>
