<svg width="59" height="60" viewBox="0 0 59 60" fill="none" xmlns="http://www.w3.org/2000/svg">
<path d="M19.6914 46.5703C19.6914 46.8047 19.4219 46.9922 19.082 46.9922C18.6953 47.0273 18.4258 46.8398 18.4258 46.5703C18.4258 46.3359 18.6953 46.1484 19.0352 46.1484C19.3867 46.1133 19.6914 46.3008 19.6914 46.5703ZM16.0469 46.043C15.9648 46.2773 16.1992 46.5469 16.5508 46.6172C16.8555 46.7344 17.207 46.6172 17.2773 46.3828C17.3477 46.1484 17.125 45.8789 16.7734 45.7734C16.4688 45.6914 16.1289 45.8086 16.0469 46.043ZM21.2266 45.8438C20.8867 45.9258 20.6523 46.1484 20.6875 46.418C20.7227 46.6523 21.0273 46.8047 21.3789 46.7227C21.7188 46.6406 21.9531 46.418 21.918 46.1836C21.8828 45.9609 21.5664 45.8086 21.2266 45.8438ZM28.9375 0.9375C12.6836 0.9375 0.25 13.2773 0.25 29.5312C0.25 42.5273 8.42969 53.6484 20.1133 57.5625C21.6133 57.832 22.1406 56.9062 22.1406 56.1445C22.1406 55.418 22.1055 51.4102 22.1055 48.9492C22.1055 48.9492 13.9023 50.707 12.1797 45.457C12.1797 45.457 10.8438 42.0469 8.92188 41.168C8.92188 41.168 6.23828 39.3281 9.10938 39.3633C9.10938 39.3633 12.0273 39.5977 13.6328 42.3867C16.1992 46.9102 20.5 45.6094 22.1758 44.8359C22.4453 42.9609 23.207 41.6602 24.0508 40.8867C17.5 40.1602 10.8906 39.2109 10.8906 27.9375C10.8906 24.7148 11.7812 23.0977 13.6562 21.0352C13.3516 20.2734 12.3555 17.1328 13.9609 13.0781C16.4102 12.3164 22.0469 16.2422 22.0469 16.2422C24.3906 15.5859 26.9102 15.2461 29.4062 15.2461C31.9023 15.2461 34.4219 15.5859 36.7656 16.2422C36.7656 16.2422 42.4023 12.3047 44.8516 13.0781C46.457 17.1445 45.4609 20.2734 45.1562 21.0352C47.0312 23.1094 48.1797 24.7266 48.1797 27.9375C48.1797 39.2461 41.2773 40.1484 34.7266 40.8867C35.8047 41.8125 36.7188 43.5703 36.7188 46.3242C36.7188 50.2734 36.6836 55.1602 36.6836 56.1211C36.6836 56.8828 37.2227 57.8086 38.7109 57.5391C50.4297 53.6484 58.375 42.5273 58.375 29.5312C58.375 13.2773 45.1914 0.9375 28.9375 0.9375ZM11.6406 41.3555C11.4883 41.4727 11.5234 41.7422 11.7227 41.9648C11.9102 42.1523 12.1797 42.2344 12.332 42.082C12.4844 41.9648 12.4492 41.6953 12.25 41.4727C12.0625 41.2852 11.793 41.2031 11.6406 41.3555ZM10.375 40.4062C10.293 40.5586 10.4102 40.7461 10.6445 40.8633C10.832 40.9805 11.0664 40.9453 11.1484 40.7812C11.2305 40.6289 11.1133 40.4414 10.8789 40.3242C10.6445 40.2539 10.457 40.2891 10.375 40.4062ZM14.1719 44.5781C13.9844 44.7305 14.0547 45.082 14.3242 45.3047C14.5938 45.5742 14.9336 45.6094 15.0859 45.4219C15.2383 45.2695 15.168 44.918 14.9336 44.6953C14.6758 44.4258 14.3242 44.3906 14.1719 44.5781ZM12.8359 42.8555C12.6484 42.9727 12.6484 43.2773 12.8359 43.5469C13.0234 43.8164 13.3398 43.9336 13.4922 43.8164C13.6797 43.6641 13.6797 43.3594 13.4922 43.0898C13.3281 42.8203 13.0234 42.7031 12.8359 42.8555Z" fill="white" fill-opacity="0.8"/>
</svg>
