<svg width="54" height="60" viewBox="0 0 54 60" fill="none" xmlns="http://www.w3.org/2000/svg">
<g clip-path="url(#clip0_14_246)">
<path d="M47.625 3.75H6.375C3.26953 3.75 0.75 6.26953 0.75 9.375V50.625C0.75 53.7305 3.26953 56.25 6.375 56.25H47.625C50.7305 56.25 53.25 53.7305 53.25 50.625V9.375C53.25 6.26953 50.7305 3.75 47.625 3.75ZM29.3203 44.6953C29.3203 49.8047 26.3203 52.1367 21.9492 52.1367C18 52.1367 15.7148 50.0977 14.543 47.625L18.5625 45.1992C19.3359 46.5703 20.0391 47.7305 21.7383 47.7305C23.3555 47.7305 24.3867 47.0977 24.3867 44.625V27.8555H29.3203V44.6953ZM40.9922 52.1367C36.4102 52.1367 33.4453 49.957 32.0039 47.0977L36.0234 44.7773C37.0781 46.5 38.4609 47.7773 40.8867 47.7773C42.9258 47.7773 44.2383 46.7578 44.2383 45.3398C44.2383 43.6523 42.9023 43.0547 40.6406 42.0586L39.4102 41.5312C35.8477 40.0195 33.4922 38.1094 33.4922 34.0898C33.4922 30.3867 36.3164 27.5742 40.7109 27.5742C43.8516 27.5742 46.1016 28.6641 47.7187 31.5234L43.875 33.9844C43.0313 32.4727 42.1172 31.875 40.6992 31.875C39.2578 31.875 38.3437 32.7891 38.3437 33.9844C38.3437 35.4609 39.2578 36.0586 41.3789 36.9844L42.6094 37.5117C46.8047 39.3047 49.1602 41.1445 49.1602 45.2695C49.1602 49.6992 45.668 52.1367 40.9922 52.1367Z" fill="white"/>
</g>
<defs>
<clipPath id="clip0_14_246">
<rect width="52.5" height="60" fill="white" transform="translate(0.75)"/>
</clipPath>
</defs>
</svg>
