<svg width="24" height="24" viewBox="0 0 24 24" fill="none" xmlns="http://www.w3.org/2000/svg">
<path d="M12.3 22H12.2C10.8285 21.9895 9.47293 21.7056 8.21257 21.1647C6.95222 20.6238 5.81245 19.8369 4.86001 18.85C3.09385 16.9613 2.08989 14.4853 2.04187 11.8999C1.99386 9.31452 2.9052 6.80298 4.60001 4.84999C5.69189 3.62633 7.06454 2.68607 8.60001 2.10999C8.77917 2.04104 8.97439 2.02513 9.16235 2.06414C9.35032 2.10315 9.52308 2.19544 9.66001 2.32999C9.78682 2.45931 9.87614 2.62065 9.91841 2.79677C9.96068 2.9729 9.95432 3.15719 9.90001 3.32999C9.35196 4.83092 9.24338 6.45703 9.58701 8.01751C9.93063 9.57798 10.7122 11.0081 11.84 12.14C12.9783 13.2643 14.4118 14.0433 15.9745 14.3866C17.5372 14.7299 19.1652 14.6236 20.67 14.08C20.8491 14.0169 21.0425 14.0062 21.2275 14.049C21.4125 14.0918 21.5814 14.1864 21.7147 14.3217C21.8479 14.457 21.9398 14.6274 21.9797 14.8131C22.0196 14.9987 22.0058 15.1919 21.94 15.37C21.4292 16.7337 20.6311 17.9717 19.6 19C18.6408 19.9563 17.5022 20.7136 16.2494 21.2285C14.9966 21.7433 13.6544 22.0055 12.3 22Z" fill="#0A0A0A" fill-opacity="0.8"/>
</svg>
