<svg width="24" height="24" viewBox="0 0 24 24" fill="none" xmlns="http://www.w3.org/2000/svg">
<path d="M12 4.8C12.3183 4.8 12.6235 4.67357 12.8485 4.44853C13.0736 4.22348 13.2 3.91826 13.2 3.6V1.2C13.2 0.88174 13.0736 0.576515 12.8485 0.351472C12.6235 0.126428 12.3183 0 12 0C11.6817 0 11.3765 0.126428 11.1515 0.351472C10.9264 0.576515 10.8 0.88174 10.8 1.2V3.6C10.8 3.91826 10.9264 4.22348 11.1515 4.44853C11.3765 4.67357 11.6817 4.8 12 4.8Z" fill="white" fill-opacity="0.8"/>
<path d="M22.8 10.8H20.4C20.0817 10.8 19.7765 10.9264 19.5515 11.1515C19.3264 11.3765 19.2 11.6817 19.2 12C19.2 12.3183 19.3264 12.6235 19.5515 12.8485C19.7765 13.0736 20.0817 13.2 20.4 13.2H22.8C23.1183 13.2 23.4235 13.0736 23.6485 12.8485C23.8736 12.6235 24 12.3183 24 12C24 11.6817 23.8736 11.3765 23.6485 11.1515C23.4235 10.9264 23.1183 10.8 22.8 10.8Z" fill="white" fill-opacity="0.8"/>
<path d="M4.8 12C4.8 11.6817 4.67357 11.3765 4.44853 11.1515C4.22348 10.9264 3.91826 10.8 3.6 10.8H1.2C0.88174 10.8 0.576515 10.9264 0.351472 11.1515C0.126428 11.3765 0 11.6817 0 12C0 12.3183 0.126428 12.6235 0.351472 12.8485C0.576515 13.0736 0.88174 13.2 1.2 13.2H3.6C3.91826 13.2 4.22348 13.0736 4.44853 12.8485C4.67357 12.6235 4.8 12.3183 4.8 12Z" fill="white" fill-opacity="0.8"/>
<path d="M5.06399 3.59999C4.83007 3.3788 4.51786 3.25959 4.19605 3.26859C3.87424 3.2776 3.56918 3.41407 3.34799 3.64799C3.1268 3.88191 3.00759 4.19412 3.01659 4.51593C3.0256 4.83774 3.16207 5.1428 3.39599 5.36399L5.12399 7.03199C5.23995 7.14396 5.37728 7.23142 5.52779 7.28915C5.6783 7.34688 5.83889 7.37369 5.99999 7.36799C6.16164 7.36737 6.32149 7.3341 6.46996 7.27018C6.61843 7.20625 6.75245 7.11299 6.86399 6.99599C7.08749 6.77115 7.21294 6.46701 7.21294 6.14999C7.21294 5.83297 7.08749 5.52882 6.86399 5.30399L5.06399 3.59999Z" fill="white" fill-opacity="0.8"/>
<path d="M18 7.36801C18.309 7.36678 18.6055 7.24643 18.828 7.03201L20.556 5.36401C20.7668 5.14375 20.8858 4.85151 20.889 4.54665C20.8921 4.24179 20.7791 3.94716 20.5729 3.72261C20.3667 3.49806 20.0827 3.36042 19.7787 3.33765C19.4747 3.31488 19.1734 3.40868 18.936 3.60001L17.208 5.30401C16.9845 5.52884 16.859 5.83299 16.859 6.15001C16.859 6.46703 16.9845 6.77117 17.208 6.99601C17.4158 7.21527 17.6986 7.34811 18 7.36801Z" fill="white" fill-opacity="0.8"/>
<path d="M12 19.2C11.6817 19.2 11.3765 19.3264 11.1515 19.5515C10.9264 19.7765 10.8 20.0817 10.8 20.4V22.8C10.8 23.1183 10.9264 23.4235 11.1515 23.6485C11.3765 23.8736 11.6817 24 12 24C12.3183 24 12.6235 23.8736 12.8485 23.6485C13.0736 23.4235 13.2 23.1183 13.2 22.8V20.4C13.2 20.0817 13.0736 19.7765 12.8485 19.5515C12.6235 19.3264 12.3183 19.2 12 19.2Z" fill="white" fill-opacity="0.8"/>
<path d="M18.876 16.968C18.6469 16.7468 18.3392 16.6257 18.0208 16.6313C17.7024 16.637 17.3992 16.7689 17.178 16.998C16.9568 17.2271 16.8357 17.5348 16.8414 17.8532C16.847 18.1716 16.9789 18.4748 17.208 18.696L18.936 20.4C19.1585 20.6144 19.4551 20.7348 19.764 20.736C19.9248 20.7369 20.0841 20.7056 20.2326 20.6437C20.381 20.5819 20.5155 20.4908 20.628 20.376C20.7405 20.2644 20.8298 20.1317 20.8907 19.9855C20.9516 19.8393 20.983 19.6824 20.983 19.524C20.983 19.3656 20.9516 19.2087 20.8907 19.0625C20.8298 18.9163 20.7405 18.7836 20.628 18.672L18.876 16.968Z" fill="white" fill-opacity="0.8"/>
<path d="M5.12398 16.968L3.39598 18.636C3.2835 18.7475 3.19423 18.8803 3.13331 19.0265C3.07239 19.1727 3.04102 19.3296 3.04102 19.488C3.04102 19.6464 3.07239 19.8033 3.13331 19.9495C3.19423 20.0957 3.2835 20.2284 3.39598 20.34C3.50853 20.4548 3.64301 20.5459 3.79143 20.6077C3.93985 20.6695 4.09919 20.7009 4.25998 20.7C4.5558 20.7025 4.84212 20.5957 5.06398 20.4L6.79198 18.732C7.02112 18.5108 7.15302 18.2076 7.15865 17.8892C7.16427 17.5708 7.04317 17.2631 6.82198 17.034C6.60079 16.8048 6.29763 16.673 5.97919 16.6673C5.66075 16.6617 5.35312 16.7828 5.12398 17.004V16.968Z" fill="white" fill-opacity="0.8"/>
<path d="M12 7.2C11.0507 7.2 10.1226 7.48152 9.33327 8.00895C8.54391 8.53638 7.92868 9.28603 7.56538 10.1631C7.20208 11.0402 7.10703 12.0053 7.29224 12.9364C7.47744 13.8675 7.9346 14.7228 8.60589 15.3941C9.27719 16.0654 10.1325 16.5226 11.0636 16.7078C11.9947 16.893 12.9598 16.7979 13.8369 16.4346C14.714 16.0713 15.4636 15.4561 15.9911 14.6667C16.5185 13.8774 16.8 12.9494 16.8 12C16.8 10.727 16.2943 9.50606 15.3941 8.60589C14.4939 7.70571 13.273 7.2 12 7.2Z" fill="white" fill-opacity="0.8"/>
</svg>
